<svg width="400" height="41" viewBox="0 0 400 41" fill="none" xmlns="http://www.w3.org/2000/svg">
<mask id="mask0" style="mask-type:alpha" maskUnits="userSpaceOnUse" x="0" y="0" width="400" height="41">
<rect width="400" height="41" fill="black"/>
</mask>
<g mask="url(#mask0)">
<path d="M102.976 5.85723C110.933 5.85723 114.96 9.55986 114.96 19.6609C114.96 29.8269 110.901 33.6919 102.976 33.6919C95.0506 33.6919 90.9258 29.8269 90.9258 19.6609C90.9258 9.55986 95.0182 5.85723 102.976 5.85723ZM110.803 18.0369C110.803 11.8009 108.237 9.20259 102.976 9.20259C97.6815 9.20259 95.1156 11.8009 95.1156 18.0369V21.3173C95.1156 27.5858 97.6815 30.3791 102.976 30.3791C108.237 30.3791 110.803 27.5858 110.803 21.3173V18.0369Z" fill="black"/>
<path d="M123.08 13.7816V16.6722C124.412 14.3662 126.588 13.3593 129.479 13.3593C134.708 13.3593 137.598 16.1525 137.598 23.5578C137.598 30.8007 134.708 33.6913 129.479 33.6913C126.718 33.6913 124.574 32.7494 123.243 30.6383V40.9992H119.345V13.7816H123.08ZM133.604 21.9663C133.604 17.809 131.655 16.1525 128.407 16.1525C125.094 16.1525 123.243 17.7765 123.243 21.9663V25.0519C123.243 29.0143 125.256 30.8656 128.374 30.8656C131.655 30.8656 133.604 28.9818 133.604 25.0519V21.9663Z" fill="black"/>
<path d="M142.309 16.8996H139.873V13.7816H142.309V7.70797H146.206V13.7816H150.916V16.8996H146.206V27.6502C146.206 29.3716 146.856 30.1187 148.577 30.1187H150.916V33.2367H147.668C143.641 33.2367 142.276 31.7101 142.276 28.0075V16.8996H142.309Z" fill="black"/>
<path d="M156.378 5.33705C157.937 5.33705 158.781 6.05159 158.781 7.6106C158.781 9.13712 157.937 9.88414 156.378 9.88414C154.884 9.88414 154.007 9.13712 154.007 7.6106C154.007 6.01911 154.884 5.33705 156.378 5.33705ZM158.359 13.7817V33.2042H154.461V13.7817H158.359Z" fill="black"/>
<path d="M183.65 16.185C181.117 16.185 179.396 17.3868 179.396 20.8296V33.2041H175.498V20.8296C175.498 17.1594 174.134 16.185 171.763 16.185C169.23 16.185 167.508 17.3868 167.508 20.8296V33.2041H163.611V13.7816H167.346V16.7047C168.418 14.3662 170.626 13.3593 173.16 13.3593C176.018 13.3593 177.934 14.4636 178.844 16.8671C179.883 14.3987 182.189 13.3593 185.047 13.3593C189.107 13.3593 191.283 15.5679 191.283 20.8296V33.2041H187.386V20.8296C187.386 17.1594 186.054 16.185 183.65 16.185Z" fill="black"/>
<path d="M202.75 22.0313L208.304 21.5766V20.927C208.304 17.4517 206.94 16.1201 204.017 16.1201C201.711 16.1201 200.347 16.8671 199.86 19.1082H195.832C196.384 15.2431 199.08 13.3593 204.082 13.3593C209.571 13.3593 212.234 15.6329 212.234 20.927V33.2366H208.499V30.2485C207.167 32.4246 204.861 33.6913 201.516 33.6913C197.424 33.6913 195.215 31.6127 195.215 28.04C195.183 24.3048 197.164 22.421 202.75 22.0313ZM202.62 30.9306C205.706 30.9306 208.304 29.3716 208.304 25.2792V23.98L203.205 24.4348C200.347 24.6621 199.145 25.4416 199.145 27.4878V28.04C199.177 29.9562 200.314 30.9306 202.62 30.9306Z" fill="black"/>
<path d="M221.239 4.78516V33.237H217.341V4.78516H221.239Z" fill="black"/>
<path d="M244.488 6.3441C252.608 6.3441 256.765 10.1766 256.765 19.7905C256.765 29.177 252.608 33.2369 244.488 33.2369H235.167V6.3441H244.488ZM252.64 21.2521V18.1016C252.64 12.2878 249.75 9.75442 244.488 9.75442H239.259V29.7616H244.488C249.75 29.7941 252.64 27.0983 252.64 21.2521Z" fill="black"/>
<path d="M262.843 13.7819L268.332 28.7549L273.789 13.7819H277.361L269.209 35.8353C267.715 39.8953 266.156 40.9996 262.356 40.9996H260.342V37.9465H261.869C264.37 37.9465 265.149 37.3619 266.091 34.861L266.448 33.8541L258.816 13.7495H262.843V13.7819Z" fill="black"/>
<path d="M293.202 20.8296C293.202 17.1594 291.675 16.185 288.947 16.185C286.089 16.185 284.205 17.3868 284.205 20.8296V33.2041H280.308V13.7816H284.043V16.7372C285.147 14.3662 287.421 13.3593 290.246 13.3593C294.728 13.3593 297.099 15.5679 297.099 20.8296V33.2041H293.202V20.8296Z" fill="black"/>
<path d="M308.568 22.0313L314.122 21.5766V20.927C314.122 17.4517 312.758 16.1201 309.835 16.1201C307.529 16.1201 306.165 16.8671 305.678 19.1082H301.65C302.202 15.2431 304.898 13.3593 309.867 13.3593C315.356 13.3593 318.02 15.6329 318.02 20.927V33.2366H314.285V30.2485C312.953 32.4246 310.647 33.6913 307.302 33.6913C303.209 33.6913 301.001 31.6127 301.001 28.04C301.001 24.3048 302.982 22.421 308.568 22.0313ZM308.438 30.9306C311.524 30.9306 314.122 29.3716 314.122 25.2792V23.98L309.023 24.4348C306.165 24.6621 304.963 25.4416 304.963 27.4878V28.04C304.963 29.9562 306.132 30.9306 308.438 30.9306Z" fill="black"/>
<path d="M343.16 16.185C340.626 16.185 338.905 17.3868 338.905 20.8296V33.2041H335.007V20.8296C335.007 17.1594 333.643 16.185 331.272 16.185C328.739 16.185 327.017 17.3868 327.017 20.8296V33.2041H323.152V13.7816H326.888V16.7047C327.927 14.3662 330.168 13.3593 332.701 13.3593C335.559 13.3593 337.508 14.4636 338.385 16.8671C339.424 14.3987 341.731 13.3593 344.589 13.3593C348.649 13.3593 350.825 15.5679 350.825 20.8296V33.2041H346.927V20.8296C346.895 17.1594 345.563 16.185 343.16 16.185Z" fill="black"/>
<path d="M357.839 5.33705C359.398 5.33705 360.242 6.05159 360.242 7.6106C360.242 9.13712 359.398 9.88414 357.839 9.88414C356.344 9.88414 355.468 9.13712 355.468 7.6106C355.435 6.01911 356.344 5.33705 357.839 5.33705ZM359.82 13.7817V33.2042H355.922V13.7817H359.82Z" fill="black"/>
<path d="M372.58 13.3593C377.387 13.3593 380.342 15.1132 380.797 19.303H376.834C376.477 16.997 374.951 16.1525 372.58 16.1525C369.462 16.1525 367.968 17.8739 367.968 21.8364V25.1493C367.968 29.4041 369.981 30.8332 372.58 30.8332C375.243 30.8332 376.51 29.6964 376.867 27.6827H380.829C380.277 31.7101 377.452 33.6913 372.58 33.6913C367.286 33.6913 364.005 31.3528 364.005 23.5578C364.005 16.3799 366.798 13.3593 372.58 13.3593Z" fill="black"/>
<path d="M387.335 27.2604C387.465 30.0212 389.122 30.9631 391.883 30.9631C394.676 30.9631 396.202 30.0537 396.202 27.8776C396.202 22.551 383.828 27.5203 383.828 19.0432C383.828 15.2756 386.718 13.3593 391.558 13.3593C396.17 13.3593 399.32 15.0807 399.45 19.2381H395.488C395.358 16.7372 393.799 16.0876 391.558 16.0876C389.057 16.0876 387.66 16.932 387.66 18.9458C387.66 24.11 400.002 19.2706 400.002 27.7801C400.002 31.9375 396.819 33.6913 391.883 33.6913C386.588 33.6913 383.503 31.6127 383.34 27.2604H387.335Z" fill="black"/>
<path fill-rule="evenodd" clip-rule="evenodd" d="M0 3.49011C0 1.70375 1.46157 0.242188 3.24792 0.242188H25.9834V13.2339H12.9917V26.2256H25.9834V39.2173H3.24792C1.46157 39.2173 0 37.7557 0 35.9693V3.49011ZM38.9829 0.242463H61.7184C63.5048 0.242463 64.9663 1.70403 64.9663 3.49039V35.9696C64.9663 37.756 63.5048 39.2175 61.7184 39.2175H38.9829V26.2259H51.9746V13.2342H38.9829V0.242463Z" fill="black"/>
</g>
</svg>
